<?xml version="1.0" encoding="UTF-8" standalone="no"?>
<!DOCTYPE svg PUBLIC "-//W3C//DTD SVG 1.1//EN" "http://www.w3.org/Graphics/SVG/1.1/DTD/svg11.dtd">
<svg width="100%" height="100%" viewBox="0 0 600 800" version="1.1" xmlns="http://www.w3.org/2000/svg" xmlns:xlink="http://www.w3.org/1999/xlink" xml:space="preserve" xmlns:serif="http://www.serif.com/" style="fill-rule:evenodd;clip-rule:evenodd;stroke-linejoin:round;stroke-miterlimit:2;">
    <g id="num-blocks">
        <rect x="8" y="13" width="16" height="17" style="fill:rgb(51,51,51);"/>
        <g transform="matrix(1,0,0,1,0,-24)">
            <rect x="8" y="13" width="16" height="17" style="fill:rgb(51,51,51);"/>
        </g>
        <g transform="matrix(1,0,0,1,0,26)">
            <rect x="8" y="13" width="16" height="17" style="fill:rgb(51,51,51);"/>
        </g>
        <g transform="matrix(1,0,0,1,0,50)">
            <rect x="8" y="13" width="16" height="17" style="fill:rgb(51,51,51);"/>
        </g>
        <g transform="matrix(1,0,0,1,0,76)">
            <rect x="8" y="13" width="16" height="17" style="fill:rgb(51,51,51);"/>
        </g>
        <g transform="matrix(1,0,0,1,0,100)">
            <rect x="8" y="13" width="16" height="17" style="fill:rgb(51,51,51);"/>
        </g>
        <g transform="matrix(1,0,0,1,0,126)">
            <rect x="8" y="13" width="16" height="17" style="fill:rgb(51,51,51);"/>
        </g>
        <g transform="matrix(1,0,0,1,0,150)">
            <rect x="8" y="13" width="16" height="17" style="fill:rgb(51,51,51);"/>
        </g>
        <g transform="matrix(1,0,0,1,0,176)">
            <rect x="8" y="13" width="16" height="17" style="fill:rgb(51,51,51);"/>
        </g>
        <g transform="matrix(1,0,0,1,0,200)">
            <rect x="8" y="13" width="16" height="17" style="fill:rgb(51,51,51);"/>
        </g>
        <g transform="matrix(1,0,0,1,0,226)">
            <rect x="8" y="13" width="16" height="17" style="fill:rgb(51,51,51);"/>
        </g>
        <g transform="matrix(1,0,0,1,0,250)">
            <rect x="8" y="13" width="16" height="17" style="fill:rgb(51,51,51);"/>
        </g>
        <g transform="matrix(1,0,0,1,0,276)">
            <rect x="8" y="13" width="16" height="17" style="fill:rgb(51,51,51);"/>
        </g>
        <g transform="matrix(1,0,0,1,0,300)">
            <rect x="8" y="13" width="16" height="17" style="fill:rgb(51,51,51);"/>
        </g>
        <g transform="matrix(1,0,0,1,0,326)">
            <rect x="8" y="13" width="16" height="17" style="fill:rgb(51,51,51);"/>
        </g>
        <g transform="matrix(1,0,0,1,0,350)">
            <rect x="8" y="13" width="16" height="17" style="fill:rgb(51,51,51);"/>
        </g>
        <g transform="matrix(1,0,0,1,0,376)">
            <rect x="8" y="13" width="16" height="17" style="fill:rgb(51,51,51);"/>
        </g>
        <g transform="matrix(1,0,0,1,0,400)">
            <rect x="8" y="13" width="16" height="17" style="fill:rgb(51,51,51);"/>
        </g>
        <g transform="matrix(1,0,0,1,0,426)">
            <rect x="8" y="13" width="16" height="17" style="fill:rgb(51,51,51);"/>
        </g>
        <g transform="matrix(1,0,0,1,0,450)">
            <rect x="8" y="13" width="16" height="17" style="fill:rgb(51,51,51);"/>
        </g>
        <g transform="matrix(1,0,0,1,0,476)">
            <rect x="8" y="13" width="16" height="17" style="fill:rgb(51,51,51);"/>
        </g>
        <g transform="matrix(1,0,0,1,0,500)">
            <rect x="8" y="13" width="16" height="17" style="fill:rgb(51,51,51);"/>
        </g>
        <g transform="matrix(1,0,0,1,0,526)">
            <rect x="8" y="13" width="16" height="17" style="fill:rgb(51,51,51);"/>
        </g>
        <g transform="matrix(1,0,0,1,0,550)">
            <rect x="8" y="13" width="16" height="17" style="fill:rgb(51,51,51);"/>
        </g>
        <g transform="matrix(1,0,0,1,0,576)">
            <rect x="8" y="13" width="16" height="17" style="fill:rgb(51,51,51);"/>
        </g>
        <g transform="matrix(1,0,0,1,0,600)">
            <rect x="8" y="13" width="16" height="17" style="fill:rgb(51,51,51);"/>
        </g>
        <g transform="matrix(1,0,0,1,0,626)">
            <rect x="8" y="13" width="16" height="17" style="fill:rgb(51,51,51);"/>
        </g>
        <g transform="matrix(1,0,0,1,0,650)">
            <rect x="8" y="13" width="16" height="17" style="fill:rgb(51,51,51);"/>
        </g>
        <g transform="matrix(1,0,0,1,0,676)">
            <rect x="8" y="13" width="16" height="17" style="fill:rgb(51,51,51);"/>
        </g>
        <g transform="matrix(1,0,0,1,0,700)">
            <rect x="8" y="13" width="16" height="17" style="fill:rgb(51,51,51);"/>
        </g>
        <g transform="matrix(1,0,0,1,0,726)">
            <rect x="8" y="13" width="16" height="17" style="fill:rgb(51,51,51);"/>
        </g>
        <g transform="matrix(1,0,0,1,0,750)">
            <rect x="8" y="13" width="16" height="17" style="fill:rgb(51,51,51);"/>
        </g>
        <g transform="matrix(1,0,0,1,0,776)">
            <rect x="8" y="13" width="16" height="17" style="fill:rgb(51,51,51);"/>
        </g>
    </g>
    <g id="func" transform="matrix(1.33333,0,0,1.21429,-11.6667,-5.21429)">
        <rect x="35" y="15" width="30" height="14" style="fill:rgb(174,129,255);"/>
    </g>
    <g id="func1" serif:id="func" transform="matrix(1.33333,0,0,1.21429,-11.6667,120.786)">
        <rect x="35" y="15" width="30" height="14" style="fill:rgb(174,129,255);"/>
    </g>
    <g id="func2" serif:id="func" transform="matrix(1.33333,0,0,1.21429,-15.6667,244.786)">
        <rect x="35" y="15" width="30" height="14" style="fill:rgb(174,129,255);"/>
    </g>
    <g id="func3" serif:id="func" transform="matrix(0.933333,0,0,1.21429,-1.66667,720.786)">
        <rect x="35" y="15" width="30" height="14" style="fill:rgb(174,129,255);"/>
    </g>
    <g id="func4" serif:id="func" transform="matrix(0.933333,0,0,1.21429,105.333,720.786)">
        <rect x="35" y="15" width="30" height="14" style="fill:rgb(174,129,255);"/>
    </g>
    <g id="func5" serif:id="func" transform="matrix(1.96667,0,0,1.21429,45.6667,494.786)">
        <rect x="35" y="15" width="30" height="14" style="fill:rgb(174,129,255);"/>
    </g>
    <g id="func6" serif:id="func" transform="matrix(0.966667,0,0,1.21429,50.1667,518.786)">
        <rect x="35" y="15" width="30" height="14" style="fill:rgb(174,129,255);"/>
    </g>
    <g id="func7" serif:id="func" transform="matrix(0.966667,0,0,1.21429,135.167,518.786)">
        <rect x="35" y="15" width="30" height="14" style="fill:rgb(174,129,255);"/>
    </g>
    <g id="func8" serif:id="func" transform="matrix(0.966667,0,0,1.21429,50.1667,570.786)">
        <rect x="35" y="15" width="30" height="14" style="fill:rgb(174,129,255);"/>
    </g>
    <g id="func9" serif:id="func" transform="matrix(0.733333,0,0,1.21429,27.3333,270.786)">
        <rect x="35" y="15" width="30" height="14" style="fill:rgb(174,129,255);"/>
    </g>
    <g id="func10" serif:id="func" transform="matrix(0.733333,0,0,1.21429,27.3333,294.786)">
        <rect x="35" y="15" width="30" height="14" style="fill:rgb(174,129,255);"/>
    </g>
    <g id="func11" serif:id="func" transform="matrix(2.06667,0,0,1.21429,-19.3333,150.786)">
        <rect x="35" y="15" width="30" height="14" style="fill:rgb(174,129,255);"/>
    </g>
    <g id="signature" transform="matrix(3.96667,0,0,1.21429,-59.8333,-5.21429)">
        <rect x="35" y="15" width="30" height="14" style="fill:rgb(102,217,239);"/>
    </g>
    <g id="signature1" serif:id="signature" transform="matrix(3.96667,0,0,1.21429,-56.8333,120.786)">
        <rect x="35" y="15" width="30" height="14" style="fill:rgb(102,217,239);"/>
    </g>
    <g id="signature2" serif:id="signature" transform="matrix(3.96667,0,0,1.21429,-60.8333,244.786)">
        <rect x="35" y="15" width="30" height="14" style="fill:rgb(102,217,239);"/>
    </g>
    <g id="signature3" serif:id="signature" transform="matrix(0.766667,0,0,1.21429,41.1667,368.786)">
        <rect x="35" y="15" width="30" height="14" style="fill:rgb(102,217,239);"/>
    </g>
    <g id="signature4" serif:id="signature" transform="matrix(0.766667,0,0,1.21429,57.1667,494.786)">
        <rect x="35" y="15" width="30" height="14" style="fill:rgb(102,217,239);"/>
    </g>
    <g id="signature5" serif:id="signature" transform="matrix(1.96667,0,0,1.21429,133.167,544.786)">
        <rect x="35" y="15" width="30" height="14" style="fill:rgb(102,217,239);"/>
    </g>
    <g id="signature6" serif:id="signature" transform="matrix(6.4,0,0,1.21429,-142.5,194.786)">
        <rect x="35" y="15" width="30" height="14" style="fill:rgb(102,217,239);"/>
    </g>
    <g id="signature7" serif:id="signature" transform="matrix(6.4,0,0,1.21429,55.5,294.786)">
        <rect x="35" y="15" width="30" height="14" style="fill:rgb(102,217,239);"/>
    </g>
    <g id="signature8" serif:id="signature" transform="matrix(1.56667,0,0,1.21429,112.167,150.786)">
        <rect x="35" y="15" width="30" height="14" style="fill:rgb(102,217,239);"/>
    </g>
    <g id="signature9" serif:id="signature" transform="matrix(7.53333,0,0,1.21429,-162.667,16.7857)">
        <rect x="35" y="15" width="30" height="14" style="fill:rgb(249,38,114);"/>
    </g>
    <g id="signature10" serif:id="signature" transform="matrix(1.46667,0,0,1.21429,-20.3333,194.786)">
        <rect x="35" y="15" width="30" height="14" style="fill:rgb(249,38,114);"/>
    </g>
    <g id="signature11" serif:id="signature" transform="matrix(1.46667,0,0,1.21429,176.667,294.786)">
        <rect x="35" y="15" width="30" height="14" style="fill:rgb(249,38,114);"/>
    </g>
    <g id="signature12" serif:id="signature" transform="matrix(1.46667,0,0,1.21429,282.667,194.786)">
        <rect x="35" y="15" width="30" height="14" style="fill:rgb(249,38,114);"/>
    </g>
    <g id="signature13" serif:id="signature" transform="matrix(6.63333,0,0,1.21429,-131.167,43.7857)">
        <rect x="35" y="15" width="30" height="14" style="fill:rgb(249,38,114);"/>
    </g>
    <g id="bracket" transform="matrix(0.3,0,0,1.21429,24.5,94.7857)">
        <rect x="35" y="15" width="30" height="14" style="fill:rgb(46,52,64);"/>
    </g>
    <g id="bracket1" serif:id="bracket" transform="matrix(0.3,0,0,1.21429,24.5,170.786)">
        <rect x="35" y="15" width="30" height="14" style="fill:rgb(46,52,64);"/>
    </g>
    <g id="bracket2" serif:id="bracket" transform="matrix(0.3,0,0,1.21429,319.5,16.7857)">
        <rect x="35" y="15" width="30" height="14" style="fill:rgb(216,222,233);"/>
    </g>
    <g id="bracket3" serif:id="bracket" transform="matrix(0.3,0,0,1.21429,292.5,43.7857)">
        <rect x="35" y="15" width="30" height="14" style="fill:rgb(216,222,233);"/>
    </g>
    <g id="bracket4" serif:id="bracket" transform="matrix(0.3,0,0,1.21429,341.5,68.7857)">
        <rect x="35" y="15" width="30" height="14" style="fill:rgb(216,222,233);"/>
    </g>
    <g id="bracket5" serif:id="bracket" transform="matrix(0.3,0,0,1.21429,190.5,-5.21429)">
        <rect x="35" y="15" width="30" height="14" style="fill:rgb(46,52,64);"/>
    </g>
    <g id="func12" serif:id="func" transform="matrix(1.33333,0,0,1.21429,6.33333,18.7857)">
        <rect x="35" y="15" width="30" height="14" style="fill:rgb(216,222,233);"/>
    </g>
    <g id="func13" serif:id="func" transform="matrix(4.66667,0,0,1.21429,44.6667,120.786)">
        <rect x="35" y="15" width="30" height="14" style="fill:rgb(216,222,233);"/>
    </g>
    <g id="func14" serif:id="func" transform="matrix(4.66667,0,0,1.21429,-65.3333,270.786)">
        <rect x="35" y="15" width="30" height="14" style="fill:rgb(216,222,233);"/>
    </g>
    <g id="func15" serif:id="func" transform="matrix(3.56667,0,0,1.21429,-26.8333,294.786)">
        <rect x="35" y="15" width="30" height="14" style="fill:rgb(216,222,233);"/>
    </g>
    <g id="func16" serif:id="func" transform="matrix(1.33333,0,0,1.21429,6.33333,43.7857)">
        <rect x="35" y="15" width="30" height="14" style="fill:rgb(216,222,233);"/>
    </g>
    <g id="func17" serif:id="func" transform="matrix(1.33333,0,0,1.21429,6.33333,68.7857)">
        <rect x="35" y="15" width="30" height="14" style="fill:rgb(216,222,233);"/>
    </g>
    <g id="func18" serif:id="func" transform="matrix(1.33333,0,0,1.21429,75.8333,150.786)">
        <rect x="35" y="15" width="30" height="14" style="fill:rgb(253,151,31);"/>
    </g>
    <g id="signature14" serif:id="signature" transform="matrix(2.03333,0,0,1.21429,207.833,150.786)">
        <rect x="35" y="15" width="30" height="14" style="fill:rgb(102,217,239);"/>
    </g>
    <g id="func19" serif:id="func" transform="matrix(1.33333,0,0,1.21429,187.833,150.786)">
        <rect x="35" y="15" width="30" height="14" style="fill:rgb(253,151,31);"/>
    </g>
    <g id="func20" serif:id="func" transform="matrix(0.866667,0,0,1.21429,299.167,270.786)">
        <rect x="35" y="15" width="30" height="14" style="fill:rgb(253,151,31);"/>
    </g>
    <g id="func21" serif:id="func" transform="matrix(1.63333,0,0,1.21429,378.333,393.786)">
        <rect x="35" y="15" width="30" height="14" style="fill:rgb(253,151,31);"/>
    </g>
    <g id="func22" serif:id="func" transform="matrix(0.4,0,0,1.21429,390.5,570.786)">
        <rect x="35" y="15" width="30" height="14" style="fill:rgb(253,151,31);"/>
    </g>
    <g id="func23" serif:id="func" transform="matrix(0.566667,0,0,1.21429,181.667,620.786)">
        <rect x="35" y="15" width="30" height="14" style="fill:rgb(253,151,31);"/>
    </g>
    <g id="func24" serif:id="func" transform="matrix(0.566667,0,0,1.21429,121.667,744.786)">
        <rect x="35" y="15" width="30" height="14" style="fill:rgb(253,151,31);"/>
    </g>
    <g id="func25" serif:id="func" transform="matrix(0.566667,0,0,1.21429,145.667,744.792)">
        <rect x="35" y="15" width="30" height="14" style="fill:rgb(253,151,31);"/>
    </g>
    <g id="func26" serif:id="func" transform="matrix(0.966667,0,0,1.21429,139.667,720.786)">
        <rect x="35" y="15" width="30" height="14" style="fill:rgb(253,151,31);"/>
    </g>
    <g id="func27" serif:id="func" transform="matrix(0.866667,0,0,1.21429,175.167,518.786)">
        <rect x="35" y="15" width="30" height="14" style="fill:rgb(253,151,31);"/>
    </g>
    <g id="signature15" serif:id="signature" transform="matrix(8.3,0,0,1.21429,-189.5,68.7857)">
        <rect x="35" y="15" width="30" height="14" style="fill:rgb(249,38,114);"/>
    </g>
    <g id="func28" serif:id="func" transform="matrix(2.06667,0,0,1.21429,269.667,16.7857)">
        <rect x="35" y="15" width="30" height="14" style="fill:rgb(166,226,46);"/>
    </g>
    <g id="func29" serif:id="func" transform="matrix(2.06667,0,0,1.21429,290.667,150.786)">
        <rect x="35" y="15" width="30" height="14" style="fill:rgb(166,226,46);"/>
    </g>
    <g id="func30" serif:id="func" transform="matrix(2.06667,0,0,1.21429,406.667,294.786)">
        <rect x="35" y="15" width="30" height="14" style="fill:rgb(166,226,46);"/>
    </g>
    <g id="func31" serif:id="func" transform="matrix(1.53333,0,0,1.21429,261.833,43.7857)">
        <rect x="35" y="15" width="30" height="14" style="fill:rgb(166,226,46);"/>
    </g>
    <g id="func32" serif:id="func" transform="matrix(1.9,0,0,1.21429,298,68.7857)">
        <rect x="35" y="15" width="30" height="14" style="fill:rgb(166,226,46);"/>
    </g>
    <g id="bracket6" serif:id="bracket" transform="matrix(0.3,0,0,1.21429,344.5,120.786)">
        <rect x="35" y="15" width="30" height="14" style="fill:rgb(46,52,64);"/>
    </g>
    <g id="bracket7" serif:id="bracket" transform="matrix(0.3,0,0,1.21429,193.5,244.786)">
        <rect x="35" y="15" width="30" height="14" style="fill:rgb(46,52,64);"/>
    </g>
    <g id="bracket8" serif:id="bracket" transform="matrix(0.3,0,0,1.21429,87.5,368.786)">
        <rect x="35" y="15" width="30" height="14" style="fill:rgb(46,52,64);"/>
    </g>
    <g id="bracket9" serif:id="bracket" transform="matrix(0.3,0,0,1.21429,107.5,444.786)">
        <rect x="35" y="15" width="30" height="14" style="fill:rgb(46,52,64);"/>
    </g>
    <g id="bracket10" serif:id="bracket" transform="matrix(0.3,0,0,1.21429,219.5,494.786)">
        <rect x="35" y="15" width="30" height="14" style="fill:rgb(46,52,64);"/>
    </g>
    <g id="bracket11" serif:id="bracket" transform="matrix(0.3,0,0,1.21429,57.5,494.786)">
        <rect x="35" y="15" width="30" height="14" style="fill:rgb(46,52,64);"/>
    </g>
    <g id="bracket12" serif:id="bracket" transform="matrix(0.3,0,0,1.21429,209.5,150.786)">
        <rect x="35" y="15" width="30" height="14" style="fill:rgb(216,222,233);"/>
    </g>
    <g id="bracket13" serif:id="bracket" transform="matrix(0.3,0,0,1.21429,71,270.786)">
        <rect x="35" y="15" width="30" height="14" style="fill:rgb(216,222,233);"/>
    </g>
    <g id="bracket14" serif:id="bracket" transform="matrix(0.3,0,0,1.21429,71,294.786)">
        <rect x="35" y="15" width="30" height="14" style="fill:rgb(216,222,233);"/>
    </g>
    <g id="bracket15" serif:id="bracket" transform="matrix(0.3,0,0,1.21429,336.5,150.786)">
        <rect x="35" y="15" width="30" height="14" style="fill:rgb(216,222,233);"/>
    </g>
    <g id="bracket16" serif:id="bracket" transform="matrix(0.3,0,0,1.21429,234.5,270.786)">
        <rect x="35" y="15" width="30" height="14" style="fill:rgb(216,222,233);"/>
    </g>
    <g id="bracket17" serif:id="bracket" transform="matrix(0.3,0,0,1.21429,201.5,294.786)">
        <rect x="35" y="15" width="30" height="14" style="fill:rgb(216,222,233);"/>
    </g>
    <g id="func33" serif:id="func" transform="matrix(0.733333,0,0,1.21429,27.3333,320.786)">
        <rect x="35" y="15" width="30" height="14" style="fill:rgb(174,129,255);"/>
    </g>
    <g id="signature16" serif:id="signature" transform="matrix(6.4,0,0,1.21429,12.5,320.786)">
        <rect x="35" y="15" width="30" height="14" style="fill:rgb(102,217,239);"/>
    </g>
    <g id="signature17" serif:id="signature" transform="matrix(6.4,0,0,1.21429,-157.5,670.786)">
        <rect x="35" y="15" width="30" height="14" style="fill:rgb(102,217,239);"/>
    </g>
    <g id="signature18" serif:id="signature" transform="matrix(1.46667,0,0,1.21429,133.667,320.786)">
        <rect x="35" y="15" width="30" height="14" style="fill:rgb(249,38,114);"/>
    </g>
    <g id="signature19" serif:id="signature" transform="matrix(1.46667,0,0,1.21429,16.6667,393.786)">
        <rect x="35" y="15" width="30" height="14" style="fill:rgb(249,38,114);"/>
    </g>
    <g id="func34" serif:id="func" transform="matrix(2.13333,0,0,1.21429,23.3333,320.786)">
        <rect x="35" y="15" width="30" height="14" style="fill:rgb(216,222,233);"/>
    </g>
    <g id="func35" serif:id="func" transform="matrix(2.13333,0,0,1.21429,191.333,670.786)">
        <rect x="35" y="15" width="30" height="14" style="fill:rgb(216,222,233);"/>
    </g>
    <g id="func36" serif:id="func" transform="matrix(2.13333,0,0,1.21429,-8.16667,720.786)">
        <rect x="35" y="15" width="30" height="14" style="fill:rgb(216,222,233);"/>
    </g>
    <g id="func37" serif:id="func" transform="matrix(2.13333,0,0,1.21429,-43.6667,744.786)">
        <rect x="35" y="15" width="30" height="14" style="fill:rgb(216,222,233);"/>
    </g>
    <g id="func38" serif:id="func" transform="matrix(2.13333,0,0,1.21429,48.3333,770.786)">
        <rect x="35" y="15" width="30" height="14" style="fill:rgb(216,222,233);"/>
    </g>
    <g id="func39" serif:id="func" transform="matrix(2.13333,0,0,1.21429,262.333,670.786)">
        <rect x="35" y="15" width="30" height="14" style="fill:rgb(216,222,233);"/>
    </g>
    <g id="func40" serif:id="func" transform="matrix(1.4,0,0,1.21429,132,494.786)">
        <rect x="35" y="15" width="30" height="14" style="fill:rgb(216,222,233);"/>
    </g>
    <g id="func41" serif:id="func" transform="matrix(1.4,0,0,1.21429,187,518.786)">
        <rect x="35" y="15" width="30" height="14" style="fill:rgb(216,222,233);"/>
    </g>
    <g id="func42" serif:id="func" transform="matrix(1.4,0,0,1.21429,35,544.786)">
        <rect x="35" y="15" width="30" height="14" style="fill:rgb(216,222,233);"/>
    </g>
    <g id="func43" serif:id="func" transform="matrix(1.4,0,0,1.21429,142,570.786)">
        <rect x="35" y="15" width="30" height="14" style="fill:rgb(216,222,233);"/>
    </g>
    <g id="func44" serif:id="func" transform="matrix(1.4,0,0,1.21429,52,620.786)">
        <rect x="35" y="15" width="30" height="14" style="fill:rgb(216,222,233);"/>
    </g>
    <g id="func45" serif:id="func" transform="matrix(2.13333,0,0,1.21429,58.3333,544.786)">
        <rect x="35" y="15" width="30" height="14" style="fill:rgb(216,222,233);"/>
    </g>
    <g id="func46" serif:id="func" transform="matrix(2.13333,0,0,1.21429,44.8333,570.786)">
        <rect x="35" y="15" width="30" height="14" style="fill:rgb(216,222,233);"/>
    </g>
    <g id="func47" serif:id="func" transform="matrix(2.13333,0,0,1.21429,8.83333,594.786)">
        <rect x="35" y="15" width="30" height="14" style="fill:rgb(216,222,233);"/>
    </g>
    <g id="func48" serif:id="func" transform="matrix(1.4,0,0,1.21429,71,518.786)">
        <rect x="35" y="15" width="30" height="14" style="fill:rgb(216,222,233);"/>
    </g>
    <g id="func49" serif:id="func" transform="matrix(1.3,0,0,1.21429,390.5,320.786)">
        <rect x="35" y="15" width="30" height="14" style="fill:rgb(166,226,46);"/>
    </g>
    <g id="func50" serif:id="func" transform="matrix(10.3167,0,0,1.21429,-242.083,393.786)">
        <rect x="35" y="15" width="30" height="14" style="fill:rgb(166,226,46);"/>
    </g>
    <g id="signature20" serif:id="signature" transform="matrix(1.46667,0,0,1.21429,16.6667,393.786)">
        <rect x="35" y="15" width="30" height="14" style="fill:rgb(249,38,114);"/>
    </g>
    <g id="func51" serif:id="func" transform="matrix(10.3167,0,0,1.21429,-242.083,393.786)">
        <rect x="35" y="15" width="30" height="14" style="fill:rgb(166,226,46);"/>
    </g>
    <g id="signature21" serif:id="signature" transform="matrix(1.46667,0,0,1.21429,16.6667,420.786)">
        <rect x="35" y="15" width="30" height="14" style="fill:rgb(249,38,114);"/>
    </g>
    <g id="signature22" serif:id="signature" transform="matrix(1.46667,0,0,1.21429,-20.3333,770.786)">
        <rect x="35" y="15" width="30" height="14" style="fill:rgb(249,38,114);"/>
    </g>
    <g id="signature23" serif:id="signature" transform="matrix(1.46667,0,0,1.21429,16.6667,444.786)">
        <rect x="35" y="15" width="30" height="14" style="fill:rgb(249,38,114);"/>
    </g>
    <g id="signature24" serif:id="signature" transform="matrix(1.46667,0,0,1.21429,233.667,518.786)">
        <rect x="35" y="15" width="30" height="14" style="fill:rgb(249,38,114);"/>
    </g>
    <g id="signature25" serif:id="signature" transform="matrix(1.46667,0,0,1.21429,98.6667,620.786)">
        <rect x="35" y="15" width="30" height="14" style="fill:rgb(249,38,114);"/>
    </g>
    <g id="signature26" serif:id="signature" transform="matrix(3.2,0,0,1.21429,128,570.786)">
        <rect x="35" y="15" width="30" height="14" style="fill:rgb(249,38,114);"/>
    </g>
    <g id="func52" serif:id="func" transform="matrix(1.35,0,0,1.21429,71.75,420.786)">
        <rect x="35" y="15" width="30" height="14" style="fill:rgb(166,226,46);"/>
    </g>
    <g id="func53" serif:id="func" transform="matrix(1.35,0,0,1.21429,41.75,470.786)">
        <rect x="35" y="15" width="30" height="14" style="fill:rgb(166,226,46);"/>
    </g>
    <g id="func54" serif:id="func" transform="matrix(0.45,0,0,1.21429,368.25,570.786)">
        <rect x="35" y="15" width="30" height="14" style="fill:rgb(166,226,46);"/>
    </g>
    <g id="bracket18" serif:id="bracket" transform="matrix(0.3,0,0,1.21429,71,320.786)">
        <rect x="35" y="15" width="30" height="14" style="fill:rgb(216,222,233);"/>
    </g>
    <g id="bracket19" serif:id="bracket" transform="matrix(0.3,0,0,1.21429,158.5,320.786)">
        <rect x="35" y="15" width="30" height="14" style="fill:rgb(216,222,233);"/>
    </g>
    <g id="bracket20" serif:id="bracket" transform="matrix(0.3,0,0,1.21429,41.5,368.786)">
        <rect x="35" y="15" width="30" height="14" style="fill:rgb(216,222,233);"/>
    </g>
    <g id="func55" serif:id="func" transform="matrix(1.53333,0,0,1.21429,226.333,194.786)">
        <rect x="35" y="15" width="30" height="14" style="fill:rgb(166,226,46);"/>
    </g>
    <g id="func56" serif:id="func" transform="matrix(1.33333,0,0,1.21429,354.333,194.786)">
        <rect x="35" y="15" width="30" height="14" style="fill:rgb(174,129,255);"/>
    </g>
    <g id="bracket21" serif:id="bracket" transform="matrix(0.3,0,0,1.21429,374.5,194.786)">
        <rect x="35" y="15" width="30" height="14" style="fill:rgb(216,222,233);"/>
    </g>
    <g id="signature27" serif:id="signature" transform="matrix(2.03333,0,0,1.21429,189.833,270.786)">
        <rect x="35" y="15" width="30" height="14" style="fill:rgb(102,217,239);"/>
    </g>
    <g id="signature28" serif:id="signature" transform="matrix(1.13333,0,0,1.21429,303.333,570.786)">
        <rect x="35" y="15" width="30" height="14" style="fill:rgb(102,217,239);"/>
    </g>
    <g id="signature29" serif:id="signature" transform="matrix(1.13333,0,0,1.21429,62.3333,744.786)">
        <rect x="35" y="15" width="30" height="14" style="fill:rgb(102,217,239);"/>
    </g>
    <g id="signature30" serif:id="signature" transform="matrix(1.13333,0,0,1.21429,42.3333,770.786)">
        <rect x="35" y="15" width="30" height="14" style="fill:rgb(102,217,239);"/>
    </g>
    <g id="signature31" serif:id="signature" transform="matrix(1.13333,0,0,1.21429,115.333,594.786)">
        <rect x="35" y="15" width="30" height="14" style="fill:rgb(102,217,239);"/>
    </g>
    <g id="bracket22" serif:id="bracket" transform="matrix(0.3,0,0,1.21429,185.5,594.786)">
        <rect x="35" y="15" width="30" height="14" style="fill:rgb(46,52,64);"/>
    </g>
    <g id="bracket23" serif:id="bracket" transform="matrix(0.3,0,0,1.21429,73.5,620.786)">
        <rect x="35" y="15" width="30" height="14" style="fill:rgb(46,52,64);"/>
    </g>
    <g id="bracket24" serif:id="bracket" transform="matrix(0.3,0,0,1.21429,20.5,694.786)">
        <rect x="35" y="15" width="30" height="14" style="fill:rgb(46,52,64);"/>
    </g>
</svg>
